<svg version="1.1" id="Layer_1" xmlns="http://www.w3.org/2000/svg" xmlns:xlink="http://www.w3.org/1999/xlink" x="0px" y="0px"
	 width="100%" viewBox="0 0 1024 1024" enable-background="new 0 0 1024 1024" xml:space="preserve">
<path fill="#000000" opacity="1.000000" stroke="none" 
	d="
M539.619385,479.598022 
	C534.823669,486.022736 530.437561,492.320618 525.594116,498.244537 
	C521.234558,503.576569 517.997864,503.492371 513.180298,498.559082 
	C508.552002,493.819672 506.883942,488.103790 507.894043,481.590118 
	C508.110657,480.193054 509.214661,478.843140 508.025787,477.302277 
	C505.664917,477.679504 504.478882,479.652985 503.018951,481.127930 
	C497.263824,486.942444 491.313873,492.532471 484.522949,497.123749 
	C479.812317,500.308594 474.838715,502.841644 468.971008,503.405365 
	C457.771484,504.481445 450.876404,499.096039 452.270020,484.294464 
	C452.408264,482.826202 452.543335,481.357605 452.758698,479.040985 
	C445.098633,485.563507 438.848938,492.458435 431.282257,497.873535 
	C417.035919,508.068878 403.996796,503.422424 399.596893,486.305969 
	C398.658386,482.654968 397.995697,478.933075 397.082794,474.668549 
	C391.225128,480.171875 385.825165,485.508514 380.137512,490.518555 
	C373.776794,496.121582 367.466919,501.872437 358.721191,503.741547 
	C350.181763,505.566528 342.188934,501.965210 338.153809,494.259552 
	C336.515381,491.130707 335.509064,487.780426 334.796265,484.364227 
	C334.121368,481.129456 333.769043,477.827362 333.242950,474.343903 
	C330.786102,474.273560 329.366150,476.165070 327.665009,477.275024 
	C321.527527,481.279724 315.826538,486.071716 309.379333,489.460236 
	C293.049408,498.043030 283.259979,512.491760 273.244019,527.102661 
	C260.589020,545.563293 245.612259,562.144897 229.410522,577.595947 
	C226.236984,580.622437 222.640396,582.977112 218.442902,584.342407 
	C208.787170,587.483093 202.176239,583.075134 201.730011,572.914734 
	C201.326340,563.723145 205.000717,555.682373 209.724930,548.117249 
	C220.202393,531.338867 234.373535,517.783813 249.768616,505.870300 
	C267.496643,492.151459 276.234924,473.000275 286.130920,452.765808 
	C282.605286,454.341064 280.907349,456.250305 279.074799,457.998047 
	C264.122986,472.258057 249.322784,486.717957 231.074509,496.895050 
	C228.178970,498.509888 225.106522,499.876617 221.990524,501.015015 
	C208.684418,505.876251 197.607910,501.956604 190.701965,489.442230 
	C184.004395,477.305450 181.880615,463.981964 183.165237,450.336212 
	C187.598434,403.245605 213.174698,368.021759 247.389175,337.958038 
	C268.529205,319.382660 292.475952,305.503937 319.554962,297.358734 
	C325.135010,295.680267 330.781311,294.428894 336.711060,294.611847 
	C345.859833,294.894135 353.049591,300.818359 354.156525,309.960541 
	C355.024292,317.127747 354.569458,324.309418 351.114685,330.906342 
	C342.111725,348.097839 329.250336,361.833038 313.212677,372.621674 
	C311.040710,374.082855 308.474884,375.111786 305.948517,375.855347 
	C302.544342,376.857208 300.925781,375.160187 301.531464,371.606720 
	C302.173492,367.840088 304.541718,364.960938 306.703369,362.025024 
	C311.862122,355.018494 316.556671,347.791626 318.811646,339.244873 
	C319.272888,337.496765 320.372894,335.693878 318.537170,334.188965 
	C316.895752,332.843262 315.112518,333.499634 313.346313,334.164886 
	C300.253967,339.096191 288.544403,346.475403 277.910614,355.366974 
	C248.655991,379.828461 228.326416,410.792603 213.550827,445.619171 
	C212.012680,449.244659 211.165329,453.241119 210.519089,457.151642 
	C208.911255,466.880981 216.073318,472.784821 225.046860,468.882019 
	C242.421936,461.325073 256.786530,449.367798 270.146057,436.271362 
	C283.585632,423.096405 296.478821,409.365143 309.675568,395.940704 
	C312.940186,392.619751 316.288574,389.307190 320.567841,387.260803 
	C325.464905,384.918945 329.629272,386.007080 332.719513,390.487335 
	C336.803772,396.408722 337.232513,402.816254 335.000031,409.553192 
	C329.220001,426.995331 321.624908,443.627411 312.762695,459.700592 
	C310.195160,464.357239 307.645355,469.023651 305.383667,473.992950 
	C313.341675,469.575500 320.284180,463.847107 327.403564,458.329346 
	C331.823639,454.903625 334.323151,450.982208 335.431946,445.304626 
	C340.512390,419.290771 352.420074,396.003540 365.510193,373.300354 
	C373.335541,359.728302 381.924896,346.635315 392.383942,334.874939 
	C395.613647,331.243408 399.074738,327.871613 403.321014,325.461700 
	C411.870422,320.609589 420.561279,325.294373 421.325226,335.101379 
	C421.889709,342.348175 420.566406,349.294739 418.342743,356.182251 
	C408.096497,387.919067 391.067230,415.697601 369.333527,440.768097 
	C366.497192,444.039886 364.051544,447.701599 360.935486,450.668640 
	C355.099823,456.225281 355.460236,462.820679 357.267517,469.604004 
	C359.016418,476.168121 364.221130,478.494446 370.463135,475.703339 
	C377.085571,472.742096 382.504730,468.012634 387.865662,463.244141 
	C395.970459,456.035004 402.918304,448.151611 408.448578,438.504700 
	C419.716339,418.849518 435.392273,403.451019 457.140289,395.241821 
	C463.489807,392.845062 470.466187,390.803986 476.608093,393.346771 
	C483.265839,396.103058 489.397400,399.340118 496.827240,400.428741 
	C502.852875,401.311615 505.142151,410.121399 502.547272,418.406494 
	C498.938080,429.930054 492.418091,440.100006 487.074493,450.813171 
	C483.435181,458.109467 479.371857,465.200745 477.111023,473.112427 
	C476.563416,475.028778 475.807220,476.895447 476.922668,478.907745 
	C479.208282,479.344025 480.661499,477.801300 482.256805,476.701965 
	C494.954590,467.951782 506.553619,457.769684 516.268555,445.940674 
	C523.837097,436.725189 528.481018,425.380493 533.786987,414.631439 
	C535.703125,410.749542 537.517212,406.812927 539.561768,402.999817 
	C543.105347,396.390930 545.915344,394.569946 550.495728,395.603394 
	C555.537781,396.740997 560.162354,402.985413 560.352417,408.696808 
	C560.450806,411.653748 559.371704,414.258148 558.246033,416.839355 
	C555.132629,423.978851 551.915039,431.072937 548.441406,438.850433 
	C561.323486,425.155273 573.357727,411.667084 587.669189,400.517914 
	C589.507751,399.085541 591.305725,397.580780 593.257568,396.318390 
	C597.306519,393.699585 601.566467,391.685028 606.216431,394.874207 
	C610.477844,397.796936 612.422546,404.195160 610.373230,409.645294 
	C606.977173,418.677185 603.186340,427.560028 599.650513,436.540558 
	C599.017883,438.147400 597.673523,439.722687 598.696411,441.773773 
	C601.334229,441.494904 602.646423,439.368988 604.209961,437.775024 
	C614.475525,427.310028 624.642639,416.748627 634.882507,406.258362 
	C636.389832,404.714142 638.057556,403.311157 639.747314,401.963531 
	C642.974915,399.389343 646.427734,397.201050 650.653259,399.593536 
	C655.059631,402.088379 657.250366,406.085907 657.301758,411.115814 
	C657.345398,415.386627 655.480774,419.201355 653.870239,423.016998 
	C649.649231,433.017090 643.533997,442.027222 638.697693,451.711212 
	C636.387024,456.337952 634.138306,460.994202 632.736694,465.976440 
	C632.169617,467.992035 631.448975,470.510345 633.433960,472.036255 
	C635.381958,473.533813 637.271729,471.731781 638.861206,470.714874 
	C644.496460,467.109619 649.475403,462.704773 654.165405,457.925903 
	C656.222168,455.830170 658.327271,452.058441 661.934937,454.718445 
	C665.504456,457.350311 665.075989,461.533783 663.562683,465.211395 
	C662.702271,467.302429 661.068909,469.152313 659.516296,470.868958 
	C650.008911,481.380981 640.348694,491.744141 628.236816,499.400574 
	C625.277161,501.271423 622.242676,503.028839 618.631958,503.333954 
	C607.626038,504.263916 600.462402,494.252594 603.094421,481.663757 
	C604.955994,472.760010 609.191589,464.797058 612.935242,456.637177 
	C613.396240,455.632202 613.843506,454.620911 614.832520,452.422333 
	C603.595398,461.405548 595.242981,471.284149 587.090759,481.359009 
	C582.586853,486.924988 578.096008,492.502838 573.503662,497.995392 
	C570.652161,501.405853 567.202271,503.468597 562.532288,501.816589 
	C557.799133,500.142273 554.911438,495.992493 554.656738,490.749054 
	C554.230774,481.981598 557.388184,474.090759 560.613525,466.231689 
	C563.189392,459.955292 565.940674,453.750885 568.096497,447.153351 
	C557.364197,456.774323 548.736084,468.164795 539.619385,479.598022 
M435.097351,469.589935 
	C450.803711,456.639191 463.427155,441.182739 472.787048,423.094330 
	C473.647186,421.432098 475.443298,419.719696 473.730347,417.669189 
	C472.252411,415.900085 470.053131,416.126984 468.137207,416.521790 
	C464.548279,417.261322 461.121063,418.561829 458.015686,420.578003 
	C440.694916,431.823273 429.946503,448.067749 422.889618,467.048248 
	C422.165558,468.995697 422.100311,471.306427 422.223206,473.419861 
	C422.369751,475.940033 423.876099,477.116791 426.299561,475.617676 
	C429.118286,473.874115 431.802002,471.912323 435.097351,469.589935 
M375.324036,403.766083 
	C373.945862,407.651703 371.274597,411.172119 371.987305,415.712524 
	C384.858795,398.512085 395.584442,380.227325 402.320312,358.987030 
	C396.688171,366.292267 391.910248,373.279266 387.660553,380.627869 
	C383.407318,387.982574 379.141602,395.328156 375.324036,403.766083 
z"/>
<path fill="#000000" opacity="1.000000" stroke="none" 
	d="
M613.714233,170.423309 
	C587.540100,165.131714 561.592102,161.603790 535.315186,160.123505 
	C511.485687,158.781113 487.664398,158.720016 463.932404,160.535995 
	C394.631073,165.838943 328.442963,182.658401 267.380066,216.736771 
	C203.771988,252.235580 153.614090,301.017120 121.733971,367.265289 
	C108.654984,394.443970 100.673401,423.136963 97.184883,453.148773 
	C94.848709,473.246887 94.451180,493.352905 96.523735,513.401489 
	C100.395752,550.857056 112.633514,585.628540 131.799774,617.996155 
	C133.412354,620.719482 135.051010,623.429871 136.576462,626.201843 
	C139.818024,632.092163 138.504364,638.122253 133.417007,641.024963 
	C128.233521,643.982544 122.593475,642.222656 119.035583,636.318298 
	C109.393898,620.317871 100.764008,603.792053 94.078697,586.324890 
	C84.276474,560.713806 78.514580,534.266602 76.516899,506.837524 
	C73.335190,463.151154 79.581802,420.948944 94.888481,380.059845 
	C107.557152,346.217773 125.772438,315.494202 148.973083,287.833313 
	C205.008987,221.024734 277.357788,180.563934 360.469604,157.741745 
	C387.738251,150.253876 415.516022,145.577011 443.641815,142.440460 
	C472.375732,139.236099 501.197693,138.487137 529.918518,139.930756 
	C610.388672,143.975464 687.083496,162.608749 757.418640,203.250351 
	C819.437256,239.086411 868.714783,287.565826 901.717590,351.649536 
	C917.301514,381.909760 927.351257,413.945526 931.518127,447.847290 
	C933.964233,467.748535 934.730774,487.658569 933.208069,507.590485 
	C929.994080,549.662354 917.903748,589.121521 897.171753,625.902161 
	C895.454651,628.948547 893.843323,632.067993 891.927368,634.985779 
	C888.870850,639.640259 883.841187,641.053284 879.353027,638.766785 
	C874.734192,636.413696 872.431274,630.958740 874.783325,626.048828 
	C878.664551,617.946838 883.269226,610.194214 887.253601,602.138367 
	C899.887817,576.593689 908.190247,549.751221 911.805664,521.405273 
	C921.592834,444.671417 901.638367,375.995026 855.441711,314.705109 
	C815.013306,261.068176 761.924805,223.784836 700.642639,197.522659 
	C672.733093,185.562149 643.767944,176.943787 613.714233,170.423309 
z"/>
<path fill="#000000" opacity="1.000000" stroke="none" 
	d="
M775.252441,701.367798 
	C775.665283,698.141785 776.305054,695.394470 777.465027,692.789673 
	C778.170166,691.206116 779.134460,689.702026 781.134827,690.023865 
	C782.982483,690.321289 784.025085,691.804810 784.165466,693.554321 
	C784.363525,696.021912 784.215637,698.517212 785.132080,701.167175 
	C786.411560,696.206177 787.605225,691.220459 789.018738,686.297974 
	C789.492737,684.647217 789.590454,682.238892 791.875366,682.053772 
	C794.437683,681.846069 795.429688,684.079102 796.436462,686.022095 
	C797.488831,688.052917 797.233154,690.216125 797.237610,692.382446 
	C797.241577,694.288391 796.528442,696.372498 798.418823,698.312683 
	C801.661316,695.907715 803.215515,693.274780 801.613831,689.096069 
	C799.444275,683.435608 799.562683,677.698730 802.216003,672.147339 
	C803.609009,669.232666 805.385254,665.743042 808.821716,666.186829 
	C812.254944,666.630127 815.822449,668.496094 817.401855,672.244202 
	C818.399048,674.610718 819.143616,677.083618 820.117126,679.835510 
	C822.055054,676.666199 821.903564,673.610291 821.164307,670.503418 
	C820.261719,666.710388 820.602051,662.869446 820.845093,659.063171 
	C820.959595,657.268860 821.655212,655.123962 823.956909,655.213196 
	C826.056152,655.294617 825.996094,657.367859 826.409363,658.988281 
	C827.397644,662.863525 826.767090,667.232117 830.143311,671.378723 
	C831.139832,665.158447 831.054199,659.758667 830.170227,654.397522 
	C829.641968,651.193726 829.734375,648.137451 830.581970,645.018799 
	C831.023193,643.395081 831.716248,642.090576 833.478027,642.155212 
	C835.186890,642.218079 835.945374,643.518799 836.340210,645.137756 
	C837.165222,648.520386 837.287537,652.087036 838.866028,655.271118 
	C839.729614,657.013184 840.279663,659.007019 842.325989,660.261230 
	C845.513000,658.091797 844.860107,654.987549 844.304626,652.194458 
	C843.656006,648.933655 842.144958,645.984192 840.321594,643.118958 
	C837.302124,638.374023 838.219055,635.267883 842.849731,632.203430 
	C843.653442,631.671570 844.199951,630.763855 844.912109,630.078552 
	C846.611816,628.443115 847.755249,625.287781 850.733093,626.464966 
	C853.689087,627.633423 855.004639,630.464966 855.329346,633.672119 
	C855.975769,640.055115 856.098694,640.300293 859.392029,643.521851 
	C862.888672,641.170532 861.710815,636.937744 863.261597,633.783936 
	C864.721680,633.298462 865.403687,634.463867 865.843628,635.388184 
	C867.496521,638.860962 865.458374,650.905029 862.883545,653.639343 
	C860.562805,656.103638 857.562744,655.582886 854.962158,652.027893 
	C852.399658,648.525024 851.378479,644.302551 850.102417,640.076660 
	C847.131836,641.684570 847.236267,643.971802 847.735779,646.589233 
	C848.836731,652.358093 848.730408,658.229919 848.123352,664.007385 
	C847.796997,667.112244 847.688965,671.106506 843.570312,672.123535 
	C839.553711,673.115417 838.618958,669.226013 836.640991,666.887939 
	C835.421570,682.041382 834.614868,683.021423 825.578613,680.000793 
	C823.743958,683.479980 820.677979,686.074585 819.645264,690.403992 
	C817.968689,697.432068 814.195007,698.731567 805.901001,696.091003 
	C804.387085,699.535034 802.963135,703.052612 801.296509,706.451294 
	C800.431763,708.214783 799.344055,710.241638 796.974792,710.090942 
	C794.473999,709.931824 793.552185,707.795227 792.599365,705.802368 
	C791.523193,703.551636 791.778503,701.045593 791.111389,698.656006 
	C789.419495,703.207703 788.608276,707.854553 788.305542,712.601501 
	C788.164001,714.821106 787.947021,717.550903 785.436401,717.790100 
	C782.495667,718.070374 781.322815,715.376587 780.784973,712.829834 
	C780.314331,710.601257 780.130615,708.312012 779.295410,706.059387 
	C778.657654,709.983765 777.908203,713.893921 777.406738,717.835632 
	C776.521790,724.791626 775.241699,725.532776 768.748657,722.352295 
	C767.666870,724.943909 766.730896,727.598511 765.466736,730.086365 
	C764.427979,732.130615 763.295288,734.440491 760.401428,734.225525 
	C757.785156,734.031189 757.034302,731.799927 756.128296,729.842651 
	C755.785889,729.102905 755.581116,728.299316 755.103149,726.915405 
	C754.068298,730.013794 753.294556,732.633301 752.323608,735.177490 
	C749.949402,741.398193 747.250671,742.135437 741.856750,738.146851 
	C741.339294,737.764343 740.806824,737.402161 740.103760,736.904907 
	C737.771729,740.466431 736.794800,744.666748 733.665649,747.547180 
	C729.581055,751.307068 726.423279,748.890564 722.922668,745.602600 
	C718.336243,754.225586 711.259705,761.072876 708.858887,770.752930 
	C708.150574,773.608887 706.597229,776.288391 705.207092,778.930847 
	C704.211365,780.823669 702.993164,783.052612 700.337646,782.373657 
	C697.720154,781.704529 697.809875,779.279297 697.632751,777.066956 
	C697.258240,772.390991 699.411560,768.473145 701.967957,765.095154 
	C706.602417,758.971375 706.538391,751.888855 707.685181,744.128845 
	C703.807800,749.105591 701.803345,754.340088 697.853638,758.225586 
	C692.936890,763.062317 687.379333,762.582031 683.716614,756.746338 
	C679.560974,750.125244 679.977722,743.076050 682.544006,736.098755 
	C687.607605,722.332031 697.385925,712.209900 708.565125,703.256409 
	C710.308411,701.860229 712.477112,700.883911 714.563843,702.293396 
	C716.736572,703.760986 716.851868,706.207947 716.451782,708.604675 
	C715.562378,713.933411 710.262146,718.849304 705.185364,719.086670 
	C703.882385,719.147522 703.054016,719.977844 702.288391,720.850464 
	C696.505371,727.441284 692.051880,734.801086 689.598206,743.268250 
	C689.233215,744.527710 689.177063,745.907532 689.168945,747.232849 
	C689.153320,749.806580 689.403320,752.547852 692.292236,753.415833 
	C695.216797,754.294617 696.276367,751.610718 697.517273,749.725281 
	C702.386108,742.327637 705.607056,734.036438 710.065063,726.422485 
	C711.393188,724.154175 712.501282,720.253174 715.876831,721.314758 
	C719.818665,722.554443 718.675171,726.782898 718.115784,729.622192 
	C716.898926,735.798767 714.998169,741.840271 714.834717,748.743347 
	C718.812744,744.220276 721.231323,740.200012 720.180969,733.734741 
	C718.349670,722.462463 719.623901,711.148987 724.034180,700.427185 
	C724.802124,698.560303 725.387512,695.802490 728.187561,696.181702 
	C730.577576,696.505249 730.708130,699.074951 731.195557,700.922852 
	C733.728760,710.526123 731.332153,719.703430 728.567993,728.826538 
	C727.645569,731.871033 726.628296,734.838379 728.549011,737.949951 
	C730.053528,740.387329 731.628723,740.976379 733.549622,738.592224 
	C735.657715,735.975769 737.279175,733.088989 737.634521,729.648254 
	C738.564270,720.647034 742.627563,713.164246 748.976318,706.908386 
	C752.755005,703.184937 753.857666,703.955872 756.835693,708.367676 
	C759.005005,711.581299 759.448669,714.664124 759.347351,718.161255 
	C759.283936,720.348816 760.025635,722.006958 762.284485,723.036133 
	C765.028137,720.161255 766.281921,717.035217 765.937195,713.081787 
	C765.635071,709.616516 765.652649,706.085388 765.949280,702.619385 
	C766.143250,700.352661 767.493164,698.326050 770.163818,698.575562 
	C773.089966,698.848938 773.146362,701.378479 773.082764,703.530334 
	C773.019897,705.658997 772.546509,707.775574 772.087891,711.092896 
	C774.345459,707.509338 774.439331,704.540955 775.252441,701.367798 
M745.739197,732.329651 
	C748.605408,732.549316 748.753357,730.015015 749.383850,728.361877 
	C751.069702,723.941772 751.914490,719.297607 752.130981,714.476135 
	C750.276062,716.638245 748.529236,718.829407 747.271179,721.272339 
	C745.571594,724.572510 743.075623,727.843323 745.739197,732.329651 
M813.366333,683.983948 
	C811.804077,681.530273 810.048096,679.194092 809.118530,675.918518 
	C806.745178,679.736023 805.670593,683.089722 807.654724,686.749939 
	C808.570251,688.438782 809.262085,691.023071 811.790527,690.172485 
	C814.293640,689.330383 815.296326,687.210632 813.366333,683.983948 
M727.337341,714.981812 
	C727.777283,712.462097 727.793945,709.973755 727.079224,706.077576 
	C725.330017,712.836426 725.077148,718.184448 725.573669,724.037537 
	C727.084839,721.139099 726.408203,718.356140 727.337341,714.981812 
z"/>
<path fill="#000000" opacity="1.000000" stroke="none" 
	d="
M821.855225,486.946838 
	C813.387634,493.193268 804.564758,497.168945 794.132141,494.665833 
	C782.974487,491.988831 775.380005,481.304413 774.662720,467.957184 
	C773.478333,445.920471 780.709412,426.699982 794.509827,409.876160 
	C800.635132,402.408783 808.225403,396.869476 818.268860,395.444794 
	C829.145386,393.902008 838.446106,398.563660 843.188293,408.641174 
	C850.283203,423.718414 849.022339,439.005188 843.714966,454.239990 
	C839.308777,466.888092 832.429810,477.953918 821.855225,486.946838 
M810.249207,474.917633 
	C823.450928,466.331970 833.725281,440.089722 829.984070,424.511719 
	C827.177734,412.826569 818.570129,410.001129 809.287781,417.741577 
	C803.507751,422.561462 799.813293,428.876434 797.144287,435.737885 
	C793.288879,445.649292 789.548279,455.690369 792.269043,466.640411 
	C794.549072,475.816711 800.858154,478.899231 810.249207,474.917633 
z"/>
<path fill="#000000" opacity="1.000000" stroke="none" 
	d="
M727.936157,431.576660 
	C742.023743,436.516907 748.447815,447.522369 746.204407,462.261383 
	C742.770874,484.819275 720.839661,500.050629 698.593933,495.244720 
	C692.539673,493.936798 687.657043,490.602783 683.513611,486.022858 
	C681.508362,483.806335 681.547974,482.004761 683.786743,480.123962 
	C684.293823,479.697906 684.709229,479.163849 685.177429,478.689972 
	C687.510803,476.328217 689.463806,472.946594 692.287354,471.887115 
	C695.348572,470.738403 697.253418,474.993500 700.027588,476.367493 
	C714.922180,483.744568 727.922485,474.814941 729.528748,459.471375 
	C730.123901,453.786987 724.985413,448.061218 718.982422,447.449860 
	C714.529541,446.996429 709.873352,446.609070 705.763428,448.874878 
	C702.613098,450.611603 700.879395,448.864380 698.803650,447.091644 
	C696.765442,445.350861 695.513428,443.742584 696.511780,440.716797 
	C701.042542,426.984863 705.350708,413.179443 709.735596,399.399414 
	C710.433594,397.205750 711.397644,395.598358 714.195374,395.622345 
	C727.352783,395.735229 740.511536,395.692383 753.669739,395.733826 
	C754.305359,395.735840 754.940002,396.010071 756.078247,396.274384 
	C755.924255,401.652100 754.156433,406.628296 752.677368,411.611542 
	C752.023743,413.813629 749.670776,413.310730 747.893311,413.320892 
	C740.397888,413.363739 732.899780,413.457214 725.407532,413.299164 
	C722.260315,413.232788 720.442383,414.211029 719.668823,417.410919 
	C718.701782,421.410950 717.385132,425.326416 716.188110,429.384491 
	C719.918396,431.852081 724.113342,429.645020 727.936157,431.576660 
z"/>
<path fill="#000000" opacity="1.000000" stroke="none" 
	d="
M244.723938,708.882568 
	C239.287354,710.667175 234.262573,712.449585 229.139343,713.879150 
	C226.395325,714.644836 222.809921,716.327942 221.166183,712.630737 
	C219.447418,708.764832 222.979889,706.869019 225.671875,705.405029 
	C231.664032,702.146240 237.866287,699.275696 243.957642,696.196960 
	C248.946075,693.675720 254.160995,691.539429 259.398499,687.595215 
	C251.764450,685.478577 244.917267,683.854431 237.731812,684.766113 
	C235.868851,685.002441 233.907272,685.725159 232.995605,683.477234 
	C232.181137,681.469116 233.626053,680.021912 234.964645,678.722656 
	C239.498062,674.322510 247.968460,673.918396 253.723618,677.116272 
	C256.045471,678.406433 259.217316,678.085449 261.936005,678.763489 
	C265.268250,679.594421 269.193207,679.947205 270.105804,684.205872 
	C271.001923,688.387512 267.420959,689.920654 264.845215,691.884216 
	C262.115570,693.965210 259.248505,695.865906 255.519180,698.495728 
	C261.110565,698.874329 265.021759,696.661255 269.227448,696.285461 
	C272.532898,695.990051 275.821899,695.421692 279.131012,695.285339 
	C281.741852,695.177795 284.240112,695.967102 285.106781,698.819458 
	C285.985474,701.711426 284.327759,703.632263 281.976746,704.939514 
	C275.282043,708.661926 268.446594,712.141663 261.857513,716.039734 
	C257.846405,718.412598 253.221680,720.311523 250.748642,725.938904 
	C258.042603,727.060547 263.992157,725.147888 269.472809,721.814087 
	C273.343353,719.459595 277.173401,717.838562 281.710022,719.020630 
	C282.956604,719.345398 284.433868,719.711731 284.851105,721.196899 
	C285.308441,722.824646 283.830841,723.436584 282.925201,724.362427 
	C280.128296,727.221558 276.306793,728.093384 272.873138,729.737915 
	C271.296143,730.493164 269.135223,731.439087 269.932281,733.708008 
	C270.649078,735.748535 272.740295,735.858582 274.633575,735.394409 
	C278.800598,734.373108 283.038910,733.708191 286.132904,730.049927 
	C287.798889,728.080078 290.114655,726.398987 293.020111,726.434692 
	C294.549255,726.453491 296.094574,726.846130 296.813629,728.389526 
	C297.656647,730.199036 296.200806,731.137329 295.069794,732.075745 
	C292.391083,734.298279 288.899536,735.453308 286.751465,738.376160 
	C285.970978,739.438110 285.006958,740.476868 286.076630,742.279602 
	C288.743713,742.635681 291.105774,741.656311 292.765198,739.427917 
	C295.700470,735.486023 300.039795,733.730591 304.180481,731.631775 
	C305.766022,730.828064 307.352417,730.412292 308.592987,732.226318 
	C309.679657,733.815369 308.853821,735.083679 307.799713,736.233582 
	C305.256073,739.008423 302.672394,741.746643 299.931244,744.685730 
	C302.562927,746.385437 304.393646,745.541931 306.173676,743.689636 
	C310.108673,739.594971 314.981598,737.157471 320.510742,736.098206 
	C322.104736,735.792847 323.851166,735.757568 325.438202,736.063293 
	C327.912842,736.539978 330.562775,737.361450 331.019745,740.302979 
	C331.463318,743.157959 329.400635,744.866882 327.205566,746.210938 
	C323.419952,748.528931 319.096863,749.087524 314.840271,749.868469 
	C313.457764,750.122131 311.473999,749.937866 311.613037,752.130676 
	C311.743408,754.186584 313.445953,754.843262 315.204254,754.870300 
	C320.823364,754.956787 325.805176,754.146912 329.763000,749.098389 
	C336.534821,740.460327 345.152283,733.902405 355.444611,729.806885 
	C357.013397,729.182617 358.954285,727.943970 360.524811,729.805359 
	C362.124908,731.701782 361.086304,733.703674 360.038513,735.355652 
	C355.033691,743.246399 347.067261,747.615540 339.436096,752.359558 
	C337.882965,753.325134 336.119293,754.010315 334.722382,755.154114 
	C332.976074,756.583862 331.838440,758.687866 332.697113,760.904541 
	C333.735321,763.584778 336.282013,762.780457 338.363190,762.489746 
	C341.088684,762.108948 343.401031,759.996582 346.325867,760.265930 
	C347.246185,762.329163 346.000000,763.380432 344.758789,764.095276 
	C340.706451,766.429199 336.444885,768.398071 331.803894,769.153809 
	C327.771088,769.810547 325.024109,767.455322 324.709869,763.401550 
	C324.582001,761.752380 324.688751,760.084961 324.688751,758.052551 
	C320.102875,759.578247 315.812500,761.743774 310.867981,761.400696 
	C305.782288,761.047791 303.169800,758.886169 302.673645,753.942078 
	C302.232086,749.542542 296.373352,745.594666 292.093201,746.838806 
	C291.296844,747.070190 290.531464,747.419067 289.768097,747.751282 
	C283.190887,750.613647 277.905884,750.509521 278.546509,741.223755 
	C278.575775,740.799866 278.167725,740.345764 277.874359,739.714050 
	C273.316711,739.777649 268.897552,742.661011 264.249359,740.755005 
	C260.130920,739.066223 259.708252,735.819763 262.701721,729.208008 
	C258.727203,730.081604 254.866425,730.996155 250.975418,731.755981 
	C249.192078,732.104187 247.352234,732.258728 245.532913,732.306580 
	C241.978180,732.399902 239.339844,730.657410 238.088928,727.452576 
	C236.930420,724.484497 238.999481,722.282471 241.013474,720.557739 
	C247.398331,715.089722 255.191116,711.879944 262.331055,707.617615 
	C264.161346,706.524963 265.994019,705.436218 267.689728,703.958679 
	C259.816803,704.083191 252.486969,706.559143 244.723938,708.882568 
M343.885864,744.108337 
	C346.970703,741.692993 350.055511,739.277588 353.140320,736.862244 
	C348.214050,738.872375 344.455505,742.359009 340.942078,746.168335 
	C341.759369,745.616516 342.576691,745.064758 343.885864,744.108337 
M321.594269,742.941895 
	C322.654449,741.886475 322.627747,741.208069 320.941956,741.357666 
	C317.912811,741.626526 315.996094,743.550232 314.009583,746.074219 
	C316.947754,745.777039 319.205688,744.934448 321.594269,742.941895 
z"/>
<path fill="#000000" opacity="1.000000" stroke="none" 
	d="
M478.898376,790.931641 
	C482.144226,788.062988 485.129700,785.439636 487.996979,782.920166 
	C487.540680,780.459290 485.122711,781.980164 484.241302,780.200500 
	C484.241302,780.080627 484.088745,779.538757 484.264191,779.141907 
	C486.981812,772.994873 491.211792,770.162659 497.641266,770.427063 
	C499.830505,770.517090 500.950195,769.100769 502.291840,767.932129 
	C508.821472,762.244629 515.193054,756.366638 521.886414,750.880371 
	C525.030212,748.303650 528.794983,743.540955 532.962585,747.376038 
	C536.847473,750.950928 533.003662,755.379944 530.969360,759.051086 
	C529.045166,762.523438 526.271729,765.512756 524.975647,769.332336 
	C528.202576,772.142456 526.465393,778.024780 521.315247,780.032043 
	C517.285645,781.602539 516.383911,784.342163 515.915955,789.138916 
	C521.451782,785.750366 526.998169,784.639343 528.354370,777.455078 
	C530.429932,766.460144 535.949219,756.922241 543.435181,748.595825 
	C544.605957,747.293579 545.855347,745.414490 547.973511,746.313049 
	C549.880920,747.122131 549.195251,749.179016 549.339172,750.771057 
	C549.667053,754.397156 548.370178,757.655945 546.923279,760.846985 
	C544.228943,766.788940 540.782043,772.281677 536.746887,777.404297 
	C535.277405,779.269836 534.056030,781.182007 534.308228,783.739563 
	C534.657410,787.279175 536.412659,788.374512 539.207947,786.319519 
	C544.934387,782.109680 548.658142,776.279297 552.088135,770.286438 
	C550.262878,768.737122 548.744202,770.682983 546.928040,769.302795 
	C546.782104,765.301453 549.127319,762.269470 552.890198,761.103699 
	C555.914185,760.166809 557.655823,758.749451 559.074829,756.043091 
	C560.614136,753.107483 563.316284,752.015259 566.471375,753.050720 
	C568.070312,755.240479 565.980164,756.667603 565.877747,758.391663 
	C565.838440,760.134888 568.480103,759.184692 568.428528,761.263550 
	C567.157959,764.461609 565.588379,767.512451 561.368958,768.529907 
	C558.296936,769.270691 553.662537,779.321960 554.445374,782.547363 
	C554.923706,784.518005 556.207336,785.105591 557.748718,784.025085 
	C560.708923,781.949585 563.784790,780.030640 564.789673,776.011719 
	C566.218689,770.296936 569.455933,765.746765 574.807922,762.933289 
	C581.175354,759.585999 586.060730,762.554565 586.365540,769.826721 
	C586.492981,772.867249 585.499817,775.628296 584.300476,778.578430 
	C586.785278,778.440979 587.566895,776.343445 589.272705,775.800049 
	C590.487915,779.343079 589.902649,781.265869 586.148254,782.940674 
	C583.059692,784.318481 580.531982,786.072693 578.128174,788.489197 
	C573.420471,793.221924 569.657593,792.196289 564.032227,785.109375 
	C561.631470,787.115967 559.298950,789.214050 556.807922,791.103088 
	C554.596802,792.779724 552.415955,795.105835 549.250488,793.973145 
	C545.723694,792.711304 547.044434,789.214172 546.025208,785.217285 
	C543.941895,787.634521 542.489197,789.579346 540.777832,791.260803 
	C533.475647,798.434937 530.491638,797.842285 526.441040,788.224426 
	C524.033752,788.984741 522.521973,791.034058 520.574402,792.399048 
	C518.531006,793.831299 516.575195,795.414978 514.422363,796.657532 
	C512.099060,797.998535 509.523651,799.289185 507.125916,796.810059 
	C504.936737,794.546509 505.595520,791.995300 506.597260,789.368530 
	C507.637482,786.640991 509.720001,784.310364 510.050262,781.060486 
	C502.131683,780.537048 495.032318,780.606934 490.175079,788.327332 
	C487.834747,792.047180 484.068115,794.887939 480.855255,798.032776 
	C479.317932,799.537537 477.411316,801.438232 475.261505,799.584045 
	C473.193146,797.800110 475.169373,795.944763 476.197052,794.326782 
	C476.906158,793.210449 477.817169,792.222351 478.898376,790.931641 
M509.977997,768.091248 
	C509.428406,768.788696 508.249756,769.192139 509.006622,770.779968 
	C511.546051,770.290588 514.679626,771.911255 516.671082,769.025879 
	C519.438354,765.016418 522.291809,761.019165 524.694214,755.444763 
	C518.860901,759.440491 514.732117,763.643738 509.977997,768.091248 
M576.836975,779.349487 
	C576.433533,776.683594 576.735107,773.999756 577.210144,770.978577 
	C573.872253,772.789978 571.878723,774.967834 570.921265,777.937195 
	C570.209045,780.146179 569.260559,783.109497 571.955933,784.092041 
	C574.688354,785.088135 576.408020,782.827942 576.836975,779.349487 
M540.057129,761.760132 
	C538.818115,764.512146 537.579041,767.264160 536.340027,770.016174 
	C536.590637,770.124512 536.841309,770.232849 537.091919,770.341187 
	C538.984009,766.490295 540.876099,762.639465 543.061768,758.191162 
	C540.877136,758.898376 540.899780,760.239990 540.057129,761.760132 
z"/>
<path fill="#000000" opacity="1.000000" stroke="none" 
	d="
M372.874084,758.541565 
	C374.452820,757.535095 375.684906,756.690002 377.292755,756.697083 
	C378.853455,756.703979 380.377960,756.807129 381.103790,758.451721 
	C381.753845,759.924744 380.912292,761.020508 379.869507,761.938416 
	C378.022247,763.564453 376.138062,765.148499 374.526550,767.134705 
	C378.694092,764.865540 382.833160,762.541809 387.039886,760.347778 
	C389.544281,759.041565 392.390167,757.399841 394.934753,759.577576 
	C397.712799,761.955078 394.804626,764.400269 393.852478,767.740540 
	C397.165894,765.972290 399.800446,764.442871 402.544708,763.145447 
	C404.367767,762.283569 406.413574,760.466675 408.206177,763.221924 
	C409.881836,765.797363 408.985168,768.003662 406.939301,769.879822 
	C404.857727,771.788696 402.667786,773.579468 400.587830,775.489990 
	C399.988983,776.040039 399.534393,776.807068 400.195160,778.151245 
	C403.705994,778.586121 406.816956,777.172974 408.925629,774.378357 
	C412.601868,769.506226 417.372253,766.048889 423.023224,764.585938 
	C427.661072,763.385254 430.381531,760.541504 433.140991,757.229736 
	C434.630524,755.442078 436.228912,753.728027 437.918365,752.128784 
	C439.527283,750.605591 441.565094,750.082031 443.320312,751.668274 
	C445.281097,753.440430 443.470490,754.947815 442.466278,756.393799 
	C442.088867,756.937134 441.646027,757.463196 441.139160,757.884033 
	C437.372681,761.010986 435.198151,764.681091 436.269836,769.860779 
	C436.820435,772.521851 435.239258,774.620056 433.512512,776.537964 
	C431.633148,778.625671 429.978149,780.860291 429.463837,783.681824 
	C431.931915,785.626892 433.677490,783.905457 434.960663,782.735718 
	C440.921844,777.301636 448.323212,773.328491 452.245148,765.781311 
	C453.175079,763.991882 454.996765,763.450012 456.994904,763.830566 
	C458.854736,764.184692 458.904572,765.706787 459.369446,767.177490 
	C462.025665,775.580811 459.354950,782.081055 451.519135,787.265076 
	C456.498901,787.601440 458.816559,783.943054 463.121918,782.823120 
	C463.173279,788.266541 459.055481,789.630859 456.011719,791.459961 
	C448.316742,796.084290 445.769073,795.475342 437.311035,787.658447 
	C433.589966,788.578003 431.032593,792.832031 426.777740,792.390686 
	C420.655579,791.755615 423.355896,786.714050 422.456177,783.103638 
	C419.723724,785.064575 417.540070,788.234131 414.070587,788.708374 
	C409.314026,789.358521 409.320740,784.407532 407.004364,781.821289 
	C404.033875,783.102356 401.070404,784.557617 397.980347,785.657104 
	C395.485718,786.544617 392.606049,787.416382 390.566010,784.956604 
	C388.618286,782.608337 390.191254,780.225952 391.418793,778.034363 
	C392.145294,776.737305 392.961975,775.490723 393.971313,773.839966 
	C389.483917,775.356750 386.609802,778.703979 382.989227,780.843872 
	C381.270996,781.859436 379.404816,783.288818 377.586731,781.430176 
	C375.966370,779.773743 376.570007,777.696594 377.612915,775.872681 
	C378.848022,773.712830 379.938080,771.437622 382.963531,769.248840 
	C377.551971,770.612427 375.007477,774.218811 371.580414,776.462585 
	C369.776031,777.643921 368.009857,779.305542 365.685730,778.127563 
	C363.332123,776.934692 363.703766,774.520386 363.657166,772.371094 
	C363.514709,765.795837 368.162048,762.354248 372.874084,758.541565 
M428.469879,771.086609 
	C418.802032,772.944397 414.893280,775.778503 414.940979,781.502930 
	C420.643341,779.523254 424.325500,775.251282 428.469879,771.086609 
M448.779022,783.582520 
	C451.373138,781.253967 452.868225,778.660156 450.935516,774.507202 
	C448.358856,776.849121 446.200256,778.811157 444.023041,780.790039 
	C445.030273,782.705627 445.980499,784.186829 448.779022,783.582520 
z"/>
<path fill="#000000" opacity="1.000000" stroke="none" 
	d="
M170.372101,647.648315 
	C167.158920,647.176941 163.685059,645.134705 161.791763,648.496643 
	C159.717392,652.179993 163.083084,654.619873 165.256149,657.010620 
	C170.632080,662.924988 177.249084,666.383972 185.361298,666.678894 
	C186.348282,666.714783 187.385025,666.685669 188.130020,667.760620 
	C188.710449,670.671936 186.273331,671.324097 184.378540,672.035522 
	C176.338791,675.054138 169.002243,673.063721 162.181488,668.443176 
	C158.128555,665.697754 154.794006,662.191223 152.451996,657.879028 
	C147.891693,649.482483 151.779602,642.552124 161.309982,641.664734 
	C168.536774,640.991821 174.974716,643.633179 181.946182,646.406982 
	C180.239090,643.609619 178.531876,641.399902 177.448425,638.917908 
	C174.954285,633.204468 178.272812,627.870300 184.444107,627.689392 
	C198.914642,627.264954 209.263733,635.082153 218.125458,645.304626 
	C220.909531,648.516113 218.159256,652.957214 213.547806,653.273071 
	C209.853058,653.526184 206.860092,651.704773 204.033783,649.895508 
	C203.272583,647.811951 205.526566,647.928711 205.986282,647.049255 
	C205.517807,643.313843 189.591476,636.554688 183.767105,637.572144 
	C183.541458,640.817505 185.984711,642.489624 187.916641,644.380798 
	C191.601273,647.987671 196.333038,650.389893 199.606781,654.481812 
	C200.550903,655.661865 201.677017,656.846313 200.845749,658.484192 
	C200.085175,659.982666 198.612320,660.256897 197.033127,660.386536 
	C193.989624,660.636292 191.593628,659.160278 189.142105,657.729553 
	C183.115128,654.212463 177.428223,650.063782 170.372101,647.648315 
z"/>
<path fill="#000000" opacity="1.000000" stroke="none" 
	d="
M624.545898,774.613464 
	C628.389771,771.032898 630.822876,767.103210 632.548828,762.411926 
	C633.863220,758.839478 635.720337,752.568298 640.533997,754.927246 
	C645.402405,757.313110 639.673767,761.239746 638.813354,764.528259 
	C638.571533,765.452576 638.038696,766.300842 637.907837,767.350586 
	C641.628418,762.199524 644.779053,756.649780 649.065674,751.958618 
	C650.636780,750.239258 652.177551,747.122742 655.064941,748.963257 
	C658.038879,750.858887 657.711060,753.956482 656.239197,756.982422 
	C654.708740,760.128723 651.900757,762.908691 652.899536,767.238281 
	C656.809875,766.869995 657.672791,762.697876 660.541260,761.498291 
	C661.899719,762.271851 662.337708,763.441345 661.797363,764.557800 
	C659.301575,769.714905 656.091492,774.454346 651.064514,777.359131 
	C647.739685,779.280396 646.076721,776.877991 645.761841,773.810974 
	C645.407532,770.359375 645.360901,766.850098 646.595215,763.375793 
	C644.804321,767.193359 643.117065,771.064392 641.183411,774.808228 
	C640.033508,777.034668 639.735535,780.475464 636.221313,780.264587 
	C633.019531,780.072632 632.314514,777.096375 631.232239,774.332397 
	C628.320312,777.358704 626.226196,780.964539 622.801575,783.311279 
	C616.371033,787.717773 611.218994,785.901672 609.156311,778.407593 
	C606.732727,769.601807 613.490601,756.345642 622.044739,753.201355 
	C624.160828,752.423645 626.288879,752.212891 628.078796,754.010498 
	C629.716492,755.655212 629.531921,757.658875 628.927246,759.614136 
	C627.480835,764.291016 623.774536,767.239258 620.503235,770.546448 
	C619.180542,771.883545 615.530273,772.324036 617.355957,775.157043 
	C619.353149,778.256165 622.001038,776.337463 624.545898,774.613464 
M617.127991,767.616577 
	C620.422668,765.762451 622.190002,763.053528 622.256897,758.660828 
	C618.798706,760.989197 617.849548,764.097107 617.127991,767.616577 
z"/>
<path fill="#000000" opacity="1.000000" stroke="none" 
	d="
M199.703903,688.342590 
	C196.753540,688.355225 194.253021,688.470215 191.766586,688.331970 
	C185.794113,687.999634 183.183441,684.139404 184.976120,678.418945 
	C185.798737,675.793945 187.378296,673.597961 189.545975,672.020386 
	C200.246536,664.232910 212.093918,659.398376 225.425583,658.700806 
	C227.464691,658.594177 230.135101,657.980225 230.992706,660.718262 
	C231.885376,663.568359 229.411896,664.913574 227.541672,666.141418 
	C221.755096,669.940552 215.119080,671.617065 208.505936,673.253174 
	C205.128540,674.088806 201.705719,674.780090 198.270523,675.331543 
	C195.020187,675.853271 193.688034,678.100281 193.542389,680.868225 
	C193.386108,683.838013 196.285233,683.968872 198.233887,684.318237 
	C200.936829,684.802917 203.751160,684.666321 206.960358,684.816345 
	C205.415436,688.197144 202.601547,687.898499 199.703903,688.342590 
z"/>
<path fill="#000000" opacity="1.000000" stroke="none" 
	d="
M748.715942,479.228729 
	C752.292786,473.729858 756.704895,471.587891 760.842773,473.042908 
	C764.908203,474.472473 767.036926,479.235779 766.293640,485.239990 
	C765.678833,490.206573 761.667419,494.331909 756.912842,494.887299 
	C752.718323,495.377258 748.490601,492.054504 747.820740,487.420502 
	C747.444519,484.817719 747.226746,482.103333 748.715942,479.228729 
z"/>
<path fill="#000000" opacity="1.000000" stroke="none" 
	d="
M286.553711,718.702881 
	C283.625366,716.021790 284.573334,714.028809 287.249359,712.655029 
	C289.834869,711.327820 293.089783,710.422119 294.917175,713.174805 
	C296.773132,715.970337 293.854401,717.640808 291.770905,718.867188 
	C290.336884,719.711365 288.549042,719.443604 286.553711,718.702881 
z"/>
</svg>